# File created by Blade
# Date/Time:  Thu Sep 25 17:33:50 2014
# Frame Rate: 120.000 fps
#------------------------------------------------------
:FULLY-SPECIFIED
:DEGREES
897
root -7.048967 32.847785 -2.200002 33.376850 25.396103 17.237083
Spine -10.602944 -6.336592 5.098466
Head -27.490056 19.191226 -7.673895
LeftShoulder 6.146741 8.150044 16.475159
LeftArm 85.826261 35.074874 -31.451381
LeftForeArm 16.099049 0.000000 82.992691
LeftHand -26.603610 -0.000000 29.493250
LeftHandThumb1 -26.253704 0.000000 33.147579
RightShoulder -12.128552 8.261670 -23.839440
RightArm -1.610990 -32.357063 66.339416
RightForeArm -24.807613 -0.000000 112.790128
RightHand -0.786910 -0.000000 -46.507114
RightHandThumb1 -24.326973 -0.000000 -32.862282
LeftUpLeg -18.217176 -0.292067 -13.565405
LeftLeg -2.351264 -0.000000 0.000000
LeftFoot -2.498802 11.816913 -27.434972
LeftToeBase -1.578511 -0.000000 0.000000
RightUpLeg -38.681625 -8.587293 -7.916559
RightLeg 31.165349 -0.000000 -0.000000
RightFoot -17.754960 -24.649847 -2.026126
RightToeBase 0.689476 -0.000000 -0.000000
898
root -7.034472 32.846236 -2.214097 34.023860 25.975214 18.062930
Spine -10.825995 -6.934558 5.220220
Head -27.930222 18.788371 -8.249515
LeftShoulder 6.340534 7.829862 16.589915
LeftArm 86.705939 34.739668 -30.722266
LeftForeArm 16.820299 -0.000000 82.131859
LeftHand -25.802227 -0.000000 26.302959
LeftHandThumb1 -26.253704 0.000000 33.147579
RightShoulder -12.193955 8.027755 -24.006406
RightArm -2.497898 -31.956981 66.107756
RightForeArm -25.092500 -0.000000 112.789743
RightHand -0.732479 0.000000 -45.966493
RightHandThumb1 -24.326973 -0.000000 -32.862282
LeftUpLeg -18.073605 -0.587644 -13.914112
LeftLeg -2.915748 -0.000000 0.000000
LeftFoot -1.295069 10.755176 -28.123627
LeftToeBase -1.909193 -0.000000 0.000000
RightUpLeg -38.991510 -8.851721 -8.534785
RightLeg 31.691554 -0.000000 -0.000000
RightFoot -17.780012 -25.360722 -1.979379
RightToeBase 0.531205 -0.000000 -0.000000
899
root -7.017618 32.847411 -2.226902 34.733001 26.599917 18.976692
Spine -11.088298 -7.620987 5.344508
Head -28.386384 18.449891 -8.867378
LeftShoulder 6.524907 7.521321 16.659677
LeftArm 87.507971 34.326163 -30.042391
LeftForeArm 16.990700 -0.000000 81.408415
LeftHand -25.343735 0.000000 25.607780
LeftHandThumb1 -26.253704 0.000000 33.147579
RightShoulder -12.298414 7.725371 -24.164015
RightArm -3.250725 -31.613222 65.785519
RightForeArm -25.299077 -0.000000 112.782754
RightHand -0.863443 -0.000000 -45.432186
RightHandThumb1 -24.326973 -0.000000 -32.862282
LeftUpLeg -17.951570 -0.952127 -14.269506
LeftLeg -3.411174 -0.000000 0.000000
LeftFoot -0.043159 9.674350 -29.192247
LeftToeBase -2.571906 -0.000000 0.000000
RightUpLeg -39.264616 -9.230290 -9.174670
RightLeg 32.184164 -0.000000 -0.000000
RightFoot -17.908156 -26.000088 -1.758669
RightToeBase 0.514521 -0.000000 -0.000000
900
root -7.006311 32.851990 -2.244538 35.496383 27.251958 19.965840
Spine -11.363976 -8.330791 5.450203
Head -28.828263 18.025438 -9.484247
LeftShoulder 6.747383 7.289131 16.764911
LeftArm 88.425314 33.818873 -29.295882
LeftForeArm 17.400562 -0.000000 80.637992
LeftHand -25.925725 -0.000000 26.364161
LeftHandThumb1 -26.253704 0.000000 33.147579
RightShoulder -12.399907 7.429445 -24.342618
RightArm -4.080328 -31.240482 65.535864
RightForeArm -25.487991 -0.000000 112.811030
RightHand -0.648479 0.000000 -44.777067
RightHandThumb1 -24.326973 -0.000000 -32.862282
LeftUpLeg -17.894828 -1.427266 -14.587452
LeftLeg -3.767092 -0.000000 0.000000
LeftFoot 1.190330 8.445872 -30.315956
LeftToeBase -2.392582 -0.000000 0.000000
RightUpLeg -39.535600 -9.633327 -9.852558
RightLeg 32.682826 -0.000000 -0.000000
RightFoot -17.946850 -26.757984 -1.576440
RightToeBase 0.380553 -0.000000 -0.000000
901
root -6.996196 32.861278 -2.259764 36.279644 27.934911 21.073100
Spine -11.599435 -9.177360 5.549737
Head -29.285531 17.695149 -10.257612
LeftShoulder 6.887689 7.089125 16.816838
LeftArm 89.301271 33.287139 -28.563439
LeftForeArm 18.407240 -0.000000 79.921241
LeftHand -26.241407 -0.000000 25.342751
LeftHandThumb1 -26.253704 0.000000 33.147579
RightShoulder -12.481554 7.121699 -24.584552
RightArm -4.839034 -30.918225 65.384595
RightForeArm -25.594629 -0.000000 112.803667
RightHand -0.769906 0.000000 -44.610525
RightHandThumb1 -24.326973 -0.000000 -32.862282
LeftUpLeg -17.832357 -1.926101 -14.928347
LeftLeg -3.979859 -0.000000 0.000000
LeftFoot 2.481578 7.107969 -31.839857
LeftToeBase -2.249260 -0.000000 0.000000
RightUpLeg -39.693284 -10.132454 -10.599952
RightLeg 33.152559 -0.000000 -0.000000
RightFoot -18.133139 -27.376081 -1.242928
RightToeBase 0.385405 -0.000000 -0.000000
902
root -6.990108 32.875080 -2.278348 37.118543 28.640063 22.222065
Spine -11.871604 -10.016196 5.643892
Head -29.745984 17.305012 -10.928162
LeftShoulder 7.109789 6.783553 16.861146
LeftArm 90.056705 32.802729 -27.905207
LeftForeArm 19.174777 -0.000000 79.261874
LeftHand -25.749926 -0.000000 23.295458
LeftHandThumb1 -26.253704 0.000000 33.147579
RightShoulder -12.555624 6.831264 -24.753091
RightArm -5.678687 -30.532885 65.185567
RightForeArm -25.442728 0.000000 112.923835
RightHand -0.858578 -0.000000 -43.965835
RightHandThumb1 -24.326973 -0.000000 -32.862282
LeftUpLeg -17.856896 -2.418362 -15.238355
LeftLeg -4.029464 -0.000000 0.000000
LeftFoot 3.961250 5.588741 -33.324336
LeftToeBase -3.029623 -0.000000 0.000000
RightUpLeg -39.838575 -10.623092 -11.359134
RightLeg 33.589253 -0.000000 -0.000000
RightFoot -18.178497 -28.113504 -1.114390
RightToeBase 0.409940 -0.000000 -0.000000
